<?xml version="1.0" encoding="UTF-8"?><svg xmlns="http://www.w3.org/2000/svg" xmlns:xlink="http://www.w3.org/1999/xlink" fill-opacity="1" color-rendering="auto" color-interpolation="auto" text-rendering="auto" stroke="black" stroke-linecap="square" width="1449" stroke-miterlimit="10" shape-rendering="auto" stroke-opacity="1" fill="black" stroke-dasharray="none" font-weight="normal" stroke-width="1" height="497" font-family="'Dialog'" font-style="normal" stroke-linejoin="miter" font-size="12px" stroke-dashoffset="0" image-rendering="auto">
  <!--Generated by ySVG 2.6-->
  <defs id="genericDefs"/>
  <g>
    <defs id="defs1">
      <clipPath clipPathUnits="userSpaceOnUse" id="clipPath1">
        <path d="M0 0 L1449 0 L1449 497 L0 497 L0 0 Z"/>
      </clipPath>
      <clipPath clipPathUnits="userSpaceOnUse" id="clipPath2">
        <path d="M998 483 L2447 483 L2447 980 L998 980 L998 483 Z"/>
      </clipPath>
    </defs>
    <g fill="white" text-rendering="geometricPrecision" shape-rendering="geometricPrecision" transform="translate(-998,-483)" stroke="white">
      <rect x="998" width="1449" height="497" y="483" clip-path="url(#clipPath2)" stroke="none"/>
    </g>
    <g fill="yellow" text-rendering="geometricPrecision" shape-rendering="geometricPrecision" transform="matrix(1,0,0,1,-998,-483)" stroke="yellow">
      <rect x="1346.5471" y="498" clip-path="url(#clipPath2)" width="135.9057" rx="4" ry="4" height="44" stroke="none"/>
    </g>
    <g font-size="16px" stroke-linecap="butt" transform="matrix(1,0,0,1,-998,-483)" text-rendering="geometricPrecision" font-family="sans-serif" shape-rendering="geometricPrecision" stroke-miterlimit="1.45">
      <text x="1350.9102" xml:space="preserve" y="526.2852" clip-path="url(#clipPath2)" stroke="none">forgont:Document</text>
      <rect x="1346.5471" y="498" clip-path="url(#clipPath2)" fill="none" width="135.9057" rx="4" ry="4" height="44"/>
    </g>
    <g fill="yellow" text-rendering="geometricPrecision" shape-rendering="geometricPrecision" transform="matrix(1,0,0,1,-998,-483)" stroke="yellow">
      <rect x="1648.2969" y="628.5" clip-path="url(#clipPath2)" width="125.7182" rx="4" ry="4" height="44" stroke="none"/>
    </g>
    <g font-size="16px" stroke-linecap="butt" transform="matrix(1,0,0,1,-998,-483)" text-rendering="geometricPrecision" font-family="sans-serif" shape-rendering="geometricPrecision" stroke-miterlimit="1.45">
      <text x="1656.4646" xml:space="preserve" y="656.7852" clip-path="url(#clipPath2)" stroke="none">forgont:Forgery</text>
      <rect x="1648.2969" y="628.5" clip-path="url(#clipPath2)" fill="none" width="125.7182" rx="4" ry="4" height="44"/>
    </g>
    <g fill="yellow" text-rendering="geometricPrecision" shape-rendering="geometricPrecision" transform="matrix(1,0,0,1,-998,-483)" stroke="yellow">
      <rect x="1225.8443" y="671" clip-path="url(#clipPath2)" width="81.9682" rx="4" ry="4" height="44" stroke="none"/>
    </g>
    <g font-size="16px" stroke-linecap="butt" transform="matrix(1,0,0,1,-998,-483)" text-rendering="geometricPrecision" font-family="sans-serif" shape-rendering="geometricPrecision" stroke-miterlimit="1.45">
      <text x="1233.0315" xml:space="preserve" y="699.2852" clip-path="url(#clipPath2)" stroke="none">dso:Copy</text>
      <rect x="1225.8443" y="671" clip-path="url(#clipPath2)" fill="none" width="81.9682" rx="4" ry="4" height="44"/>
    </g>
    <g fill="yellow" text-rendering="geometricPrecision" shape-rendering="geometricPrecision" transform="matrix(1,0,0,1,-998,-483)" stroke="yellow">
      <rect x="1356.7659" y="671" clip-path="url(#clipPath2)" width="115.4682" rx="4" ry="4" height="44" stroke="none"/>
    </g>
    <g font-size="16px" stroke-linecap="butt" transform="matrix(1,0,0,1,-998,-483)" text-rendering="geometricPrecision" font-family="sans-serif" shape-rendering="geometricPrecision" stroke-miterlimit="1.45">
      <text x="1359.8047" xml:space="preserve" y="699.2852" clip-path="url(#clipPath2)" stroke="none">forgont:Original</text>
      <rect x="1356.7659" y="671" clip-path="url(#clipPath2)" fill="none" width="115.4682" rx="4" ry="4" height="44"/>
    </g>
    <g fill="yellow" text-rendering="geometricPrecision" shape-rendering="geometricPrecision" transform="matrix(1,0,0,1,-998,-483)" stroke="yellow">
      <rect x="1013.0471" y="745" clip-path="url(#clipPath2)" width="172.5307" rx="4" ry="4" height="44" stroke="none"/>
    </g>
    <g font-size="16px" stroke-linecap="butt" transform="matrix(1,0,0,1,-998,-483)" text-rendering="geometricPrecision" font-family="sans-serif" shape-rendering="geometricPrecision" stroke-miterlimit="1.45">
      <text x="1020.1523" xml:space="preserve" y="773.2852" clip-path="url(#clipPath2)" stroke="none">forgont:AuthenticCopy</text>
      <rect x="1013.0471" y="745" clip-path="url(#clipPath2)" fill="none" width="172.5307" rx="4" ry="4" height="44"/>
    </g>
    <g fill="yellow" text-rendering="geometricPrecision" shape-rendering="geometricPrecision" transform="matrix(1,0,0,1,-998,-483)" stroke="yellow">
      <rect x="1013.0471" y="862.6094" clip-path="url(#clipPath2)" width="166.2807" rx="4" ry="4" height="44" stroke="none"/>
    </g>
    <g font-size="16px" stroke-linecap="butt" transform="matrix(1,0,0,1,-998,-483)" text-rendering="geometricPrecision" font-family="sans-serif" shape-rendering="geometricPrecision" stroke-miterlimit="1.45">
      <text x="1020.5977" xml:space="preserve" y="890.8945" clip-path="url(#clipPath2)" stroke="none">forgont:ImitativeCopy</text>
      <rect x="1013.0471" y="862.6094" clip-path="url(#clipPath2)" fill="none" width="166.2807" rx="4" ry="4" height="44"/>
    </g>
    <g fill="yellow" text-rendering="geometricPrecision" shape-rendering="geometricPrecision" transform="matrix(1,0,0,1,-998,-483)" stroke="yellow">
      <rect x="1060.2971" y="804.75" clip-path="url(#clipPath2)" width="110.8432" rx="4" ry="4" height="44" stroke="none"/>
    </g>
    <g font-size="16px" stroke-linecap="butt" transform="matrix(1,0,0,1,-998,-483)" text-rendering="geometricPrecision" font-family="sans-serif" shape-rendering="geometricPrecision" stroke-miterlimit="1.45">
      <text x="1064.582" xml:space="preserve" y="833.0352" clip-path="url(#clipPath2)" stroke="none">forgont:Inserts</text>
      <rect x="1060.2971" y="804.75" clip-path="url(#clipPath2)" fill="none" width="110.8432" rx="4" ry="4" height="44"/>
    </g>
    <g fill="yellow" text-rendering="geometricPrecision" shape-rendering="geometricPrecision" transform="matrix(1,0,0,1,-998,-483)" stroke="yellow">
      <rect x="1025.8596" y="920.4688" clip-path="url(#clipPath2)" width="153.4682" rx="4" ry="4" height="44" stroke="none"/>
    </g>
    <g font-size="16px" stroke-linecap="butt" transform="matrix(1,0,0,1,-998,-483)" text-rendering="geometricPrecision" font-family="sans-serif" shape-rendering="geometricPrecision" stroke-miterlimit="1.45">
      <text x="1032.3359" xml:space="preserve" y="948.7539" clip-path="url(#clipPath2)" stroke="none">forgont:SimpleCopy</text>
      <rect x="1025.8596" y="920.4688" clip-path="url(#clipPath2)" fill="none" width="153.4682" rx="4" ry="4" height="44"/>
    </g>
    <g fill="yellow" text-rendering="geometricPrecision" shape-rendering="geometricPrecision" transform="matrix(1,0,0,1,-998,-483)" stroke="yellow">
      <rect x="1828.9688" y="839.25" clip-path="url(#clipPath2)" width="248.7651" rx="4" ry="4" height="44" stroke="none"/>
    </g>
    <g font-size="16px" stroke-linecap="butt" transform="matrix(1,0,0,1,-998,-483)" text-rendering="geometricPrecision" font-family="sans-serif" shape-rendering="geometricPrecision" stroke-miterlimit="1.45">
      <text x="1831.9529" xml:space="preserve" y="867.5352" clip-path="url(#clipPath2)" stroke="none">forgont:IntegrallyForgedDocument</text>
      <rect x="1828.9688" y="839.25" clip-path="url(#clipPath2)" fill="none" width="248.7651" rx="4" ry="4" height="44"/>
    </g>
    <g fill="yellow" text-rendering="geometricPrecision" shape-rendering="geometricPrecision" transform="matrix(1,0,0,1,-998,-483)" stroke="yellow">
      <rect x="1828.9688" y="713.75" clip-path="url(#clipPath2)" width="248.7651" rx="4" ry="4" height="44" stroke="none"/>
    </g>
    <g font-size="16px" stroke-linecap="butt" transform="matrix(1,0,0,1,-998,-483)" text-rendering="geometricPrecision" font-family="sans-serif" shape-rendering="geometricPrecision" stroke-miterlimit="1.45">
      <text x="1835.9607" xml:space="preserve" y="742.0352" clip-path="url(#clipPath2)" stroke="none">forgont:PartiallyForgedDocument</text>
      <rect x="1828.9688" y="713.75" clip-path="url(#clipPath2)" fill="none" width="248.7651" rx="4" ry="4" height="44"/>
    </g>
    <g fill="yellow" text-rendering="geometricPrecision" shape-rendering="geometricPrecision" transform="matrix(1,0,0,1,-998,-483)" stroke="yellow">
      <rect x="1446.2034" y="737.6094" clip-path="url(#clipPath2)" width="185.0307" rx="4" ry="4" height="44" stroke="none"/>
    </g>
    <g font-size="16px" stroke-linecap="butt" transform="matrix(1,0,0,1,-998,-483)" text-rendering="geometricPrecision" font-family="sans-serif" shape-rendering="geometricPrecision" stroke-miterlimit="1.45">
      <text x="1457.3359" xml:space="preserve" y="765.8945" clip-path="url(#clipPath2)" stroke="none">forgont:AllegedOriginal</text>
      <rect x="1446.2034" y="737.6094" clip-path="url(#clipPath2)" fill="none" width="185.0307" rx="4" ry="4" height="44"/>
    </g>
    <g fill="yellow" text-rendering="geometricPrecision" shape-rendering="geometricPrecision" transform="matrix(1,0,0,1,-998,-483)" stroke="yellow">
      <rect x="1446.2034" y="795.4688" clip-path="url(#clipPath2)" width="208.4682" rx="4" ry="4" height="44" stroke="none"/>
    </g>
    <g font-size="16px" stroke-linecap="butt" transform="matrix(1,0,0,1,-998,-483)" text-rendering="geometricPrecision" font-family="sans-serif" shape-rendering="geometricPrecision" stroke-miterlimit="1.45">
      <text x="1457.0547" xml:space="preserve" y="823.7539" clip-path="url(#clipPath2)" stroke="none">forgont:SuspiciousOriginal</text>
      <rect x="1446.2034" y="795.4688" clip-path="url(#clipPath2)" fill="none" width="208.4682" rx="4" ry="4" height="44"/>
    </g>
    <g fill="yellow" text-rendering="geometricPrecision" shape-rendering="geometricPrecision" transform="matrix(1,0,0,1,-998,-483)" stroke="yellow">
      <rect x="2039.7346" y="776.5" clip-path="url(#clipPath2)" width="341.9682" rx="4" ry="4" height="44" stroke="none"/>
    </g>
    <g font-size="16px" stroke-linecap="butt" transform="matrix(1,0,0,1,-998,-483)" text-rendering="geometricPrecision" font-family="sans-serif" shape-rendering="geometricPrecision" stroke-miterlimit="1.45">
      <text x="2055.5234" xml:space="preserve" y="804.7852" clip-path="url(#clipPath2)" stroke="none">forgont:SuspectedPartiallyForgedDocument</text>
      <rect x="2039.7346" y="776.5" clip-path="url(#clipPath2)" fill="none" width="341.9682" rx="4" ry="4" height="44"/>
    </g>
    <g fill="yellow" text-rendering="geometricPrecision" shape-rendering="geometricPrecision" transform="matrix(1,0,0,1,-998,-483)" stroke="yellow">
      <rect x="2039.7346" y="902" clip-path="url(#clipPath2)" width="341.9682" rx="4" ry="4" height="44" stroke="none"/>
    </g>
    <g font-size="16px" stroke-linecap="butt" transform="matrix(1,0,0,1,-998,-483)" text-rendering="geometricPrecision" font-family="sans-serif" shape-rendering="geometricPrecision" stroke-miterlimit="1.45">
      <text x="2051.5156" xml:space="preserve" y="930.2852" clip-path="url(#clipPath2)" stroke="none">forgont:SuspectedIntegrallyForgedDocument</text>
      <rect x="2039.7346" y="902" clip-path="url(#clipPath2)" fill="none" width="341.9682" rx="4" ry="4" height="44"/>
    </g>
    <g fill="yellow" text-rendering="geometricPrecision" shape-rendering="geometricPrecision" transform="matrix(1,0,0,1,-998,-483)" stroke="yellow">
      <rect x="2106.4846" y="628.5" clip-path="url(#clipPath2)" width="208.4682" rx="4" ry="4" height="44" stroke="none"/>
    </g>
    <g font-size="16px" stroke-linecap="butt" transform="matrix(1,0,0,1,-998,-483)" text-rendering="geometricPrecision" font-family="sans-serif" shape-rendering="geometricPrecision" stroke-miterlimit="1.45">
      <text x="2118.2227" xml:space="preserve" y="656.7852" clip-path="url(#clipPath2)" stroke="none">forgont:SuspectedForgery</text>
      <rect x="2106.4846" y="628.5" clip-path="url(#clipPath2)" fill="none" width="208.4682" rx="4" ry="4" height="44"/>
    </g>
    <g fill="yellow" text-rendering="geometricPrecision" shape-rendering="geometricPrecision" transform="matrix(1,0,0,1,-998,-483)" stroke="yellow">
      <rect x="1446.2034" y="853.3281" clip-path="url(#clipPath2)" width="185.0307" rx="4" ry="4" height="44" stroke="none"/>
    </g>
    <g font-size="16px" stroke-linecap="butt" transform="matrix(1,0,0,1,-998,-483)" text-rendering="geometricPrecision" font-family="sans-serif" shape-rendering="geometricPrecision" stroke-miterlimit="1.45">
      <text x="1458.6758" xml:space="preserve" y="881.6133" clip-path="url(#clipPath2)" stroke="none">forgont:AlteredOriginal</text>
      <rect x="1446.2034" y="853.3281" clip-path="url(#clipPath2)" fill="none" width="185.0307" rx="4" ry="4" height="44"/>
      <path fill="none" d="M1711.156 628.4845 L1711.156 520 L1490.4716 520" clip-path="url(#clipPath2)"/>
      <path d="M1482.4716 520 L1494.4716 525 L1491.4716 520 L1494.4716 515 Z" stroke="none" clip-path="url(#clipPath2)"/>
      <path fill="none" d="M1266.8284 670.9949 L1266.8284 520 L1338.5408 520" clip-path="url(#clipPath2)"/>
      <path d="M1346.5408 520 L1334.5408 515 L1337.5408 520 L1334.5408 525 Z" stroke="none" clip-path="url(#clipPath2)"/>
      <path fill="none" d="M1414.5 670.9949 L1414.5 550.0078" clip-path="url(#clipPath2)"/>
      <path d="M1414.5 542.0078 L1409.5 554.0078 L1414.5 551.0078 L1419.5 554.0078 Z" stroke="none" clip-path="url(#clipPath2)"/>
      <path fill="none" d="M1185.5652 767 L1266.8284 767 L1266.8284 723.0049" clip-path="url(#clipPath2)"/>
      <path d="M1266.8284 715.0049 L1261.8284 727.0049 L1266.8284 724.0049 L1271.8284 727.0049 Z" stroke="none" clip-path="url(#clipPath2)"/>
      <path fill="none" d="M1179.2999 884.6094 L1266.8284 884.6094 L1266.8284 723.0332" clip-path="url(#clipPath2)"/>
      <path d="M1266.8284 715.0332 L1261.8284 727.0332 L1266.8284 724.0332 L1271.8284 727.0332 Z" stroke="none" clip-path="url(#clipPath2)"/>
      <path fill="none" d="M1171.1675 826.75 L1266.8284 826.75 L1266.8284 722.976" clip-path="url(#clipPath2)"/>
      <path d="M1266.8284 714.976 L1261.8284 726.976 L1266.8284 723.976 L1271.8284 726.976 Z" stroke="none" clip-path="url(#clipPath2)"/>
      <path fill="none" d="M1179.2981 942.4688 L1266.8284 942.4688 L1266.8284 723.0173" clip-path="url(#clipPath2)"/>
      <path d="M1266.8284 715.0173 L1261.8284 727.0173 L1266.8284 724.0173 L1271.8284 727.0173 Z" stroke="none" clip-path="url(#clipPath2)"/>
      <path fill="none" d="M1828.9719 861.25 L1711.156 861.25 L1711.156 680.496" clip-path="url(#clipPath2)"/>
      <path d="M1711.156 672.496 L1706.156 684.496 L1711.156 681.496 L1716.156 684.496 Z" stroke="none" clip-path="url(#clipPath2)"/>
      <path fill="none" d="M1828.9719 735.75 L1711.156 735.75 L1711.156 680.5201" clip-path="url(#clipPath2)"/>
      <path d="M1711.156 672.5201 L1706.156 684.5201 L1711.156 681.5201 L1716.156 684.5201 Z" stroke="none" clip-path="url(#clipPath2)"/>
      <path fill="none" d="M1446.1915 759.6094 L1414.5 759.6094 L1414.5 723.0188" clip-path="url(#clipPath2)"/>
      <path d="M1414.5 715.0188 L1409.5 727.0188 L1414.5 724.0188 L1419.5 727.0188 Z" stroke="none" clip-path="url(#clipPath2)"/>
      <path fill="none" d="M1446.1945 817.4688 L1414.5 817.4688 L1414.5 722.9705" clip-path="url(#clipPath2)"/>
      <path d="M1414.5 714.9705 L1409.5 726.9705 L1414.5 723.9705 L1419.5 726.9705 Z" stroke="none" clip-path="url(#clipPath2)"/>
      <path fill="none" d="M2039.7164 798.5 L1953.3513 798.5 L1953.3513 765.7799" clip-path="url(#clipPath2)"/>
      <path d="M1953.3513 757.7799 L1948.3513 769.7799 L1953.3513 766.7799 L1958.3513 769.7799 Z" stroke="none" clip-path="url(#clipPath2)"/>
      <path fill="none" d="M2039.7164 924 L1953.3513 924 L1953.3513 891.2799" clip-path="url(#clipPath2)"/>
      <path d="M1953.3513 883.2799 L1948.3513 895.2799 L1953.3513 892.2799 L1958.3513 895.2799 Z" stroke="none" clip-path="url(#clipPath2)"/>
      <path fill="none" d="M2210.7188 776.4951 L2210.7188 680.4938" clip-path="url(#clipPath2)"/>
      <path d="M2210.7188 672.4938 L2205.7188 684.4938 L2210.7188 681.4938 L2215.7188 684.4938 Z" stroke="none" clip-path="url(#clipPath2)"/>
      <path fill="none" d="M2381.679 924 L2431.375 924 L2431.375 650.5 L2322.9326 650.5" clip-path="url(#clipPath2)"/>
      <path d="M2314.9326 650.5 L2326.9326 655.5 L2323.9326 650.5 L2326.9326 645.5 Z" stroke="none" clip-path="url(#clipPath2)"/>
      <path fill="none" d="M2106.4705 650.5 L1782.0338 650.5" clip-path="url(#clipPath2)"/>
      <path d="M1774.0338 650.5 L1786.0338 655.5 L1783.0338 650.5 L1786.0338 645.5 Z" stroke="none" clip-path="url(#clipPath2)"/>
      <path fill="none" d="M1446.1915 875.3281 L1414.5 875.3281 L1414.5 723.0343" clip-path="url(#clipPath2)"/>
      <path d="M1414.5 715.0343 L1409.5 727.0343 L1414.5 724.0343 L1419.5 727.0343 Z" stroke="none" clip-path="url(#clipPath2)"/>
    </g>
  </g>
</svg>
