<?xml version="1.0" encoding="UTF-8"?><svg xmlns="http://www.w3.org/2000/svg" xmlns:xlink="http://www.w3.org/1999/xlink" fill-opacity="1" color-rendering="auto" color-interpolation="auto" text-rendering="auto" stroke="black" stroke-linecap="square" width="1452" stroke-miterlimit="10" shape-rendering="auto" stroke-opacity="1" fill="black" stroke-dasharray="none" font-weight="normal" stroke-width="1" height="497" font-family="'Dialog'" font-style="normal" stroke-linejoin="miter" font-size="12px" stroke-dashoffset="0" image-rendering="auto">
  <!--Generated by ySVG 2.6-->
  <defs id="genericDefs"/>
  <g>
    <defs id="defs1">
      <clipPath clipPathUnits="userSpaceOnUse" id="clipPath1">
        <path d="M0 0 L1452 0 L1452 497 L0 497 L0 0 Z"/>
      </clipPath>
      <clipPath clipPathUnits="userSpaceOnUse" id="clipPath2">
        <path d="M995 483 L2447 483 L2447 980 L995 980 L995 483 Z"/>
      </clipPath>
    </defs>
    <g fill="white" text-rendering="geometricPrecision" shape-rendering="geometricPrecision" transform="translate(-995,-483)" stroke="white">
      <rect x="995" width="1452" height="497" y="483" clip-path="url(#clipPath2)" stroke="none"/>
    </g>
    <g fill="yellow" text-rendering="geometricPrecision" shape-rendering="geometricPrecision" transform="matrix(1,0,0,1,-995,-483)" stroke="yellow">
      <rect x="1470.7659" y="498" clip-path="url(#clipPath2)" width="135.9057" rx="4" ry="4" height="44" stroke="none"/>
    </g>
    <g font-size="16px" stroke-linecap="butt" transform="matrix(1,0,0,1,-995,-483)" text-rendering="geometricPrecision" font-family="sans-serif" shape-rendering="geometricPrecision" stroke-miterlimit="1.45">
      <text x="1475.1289" xml:space="preserve" y="526.2852" clip-path="url(#clipPath2)" stroke="none">forgont:Document</text>
      <rect x="1470.7659" y="498" clip-path="url(#clipPath2)" fill="none" width="135.9057" rx="4" ry="4" height="44"/>
    </g>
    <g fill="yellow" text-rendering="geometricPrecision" shape-rendering="geometricPrecision" transform="matrix(1,0,0,1,-995,-483)" stroke="yellow">
      <rect x="1648.2969" y="628.5" clip-path="url(#clipPath2)" width="125.7182" rx="4" ry="4" height="44" stroke="none"/>
    </g>
    <g font-size="16px" stroke-linecap="butt" transform="matrix(1,0,0,1,-995,-483)" text-rendering="geometricPrecision" font-family="sans-serif" shape-rendering="geometricPrecision" stroke-miterlimit="1.45">
      <text x="1656.4646" xml:space="preserve" y="656.7852" clip-path="url(#clipPath2)" stroke="none">forgont:Forgery</text>
      <rect x="1648.2969" y="628.5" clip-path="url(#clipPath2)" fill="none" width="125.7182" rx="4" ry="4" height="44"/>
    </g>
    <g fill="yellow" text-rendering="geometricPrecision" shape-rendering="geometricPrecision" transform="matrix(1,0,0,1,-995,-483)" stroke="yellow">
      <rect x="1209.0943" y="671" clip-path="url(#clipPath2)" width="115.4682" rx="4" ry="4" height="44" stroke="none"/>
    </g>
    <g font-size="16px" stroke-linecap="butt" transform="matrix(1,0,0,1,-995,-483)" text-rendering="geometricPrecision" font-family="sans-serif" shape-rendering="geometricPrecision" stroke-miterlimit="1.45">
      <text x="1221.0237" xml:space="preserve" y="699.2852" clip-path="url(#clipPath2)" stroke="none">forgont:Copy</text>
      <rect x="1209.0943" y="671" clip-path="url(#clipPath2)" fill="none" width="115.4682" rx="4" ry="4" height="44"/>
    </g>
    <g fill="yellow" text-rendering="geometricPrecision" shape-rendering="geometricPrecision" transform="matrix(1,0,0,1,-995,-483)" stroke="yellow">
      <rect x="1356.7659" y="671" clip-path="url(#clipPath2)" width="115.4682" rx="4" ry="4" height="44" stroke="none"/>
    </g>
    <g font-size="16px" stroke-linecap="butt" transform="matrix(1,0,0,1,-995,-483)" text-rendering="geometricPrecision" font-family="sans-serif" shape-rendering="geometricPrecision" stroke-miterlimit="1.45">
      <text x="1359.8047" xml:space="preserve" y="699.2852" clip-path="url(#clipPath2)" stroke="none">forgont:Original</text>
      <rect x="1356.7659" y="671" clip-path="url(#clipPath2)" fill="none" width="115.4682" rx="4" ry="4" height="44"/>
    </g>
    <g fill="yellow" text-rendering="geometricPrecision" shape-rendering="geometricPrecision" transform="matrix(1,0,0,1,-995,-483)" stroke="yellow">
      <rect x="1010.8438" y="745" clip-path="url(#clipPath2)" width="172.5307" rx="4" ry="4" height="44" stroke="none"/>
    </g>
    <g font-size="16px" stroke-linecap="butt" transform="matrix(1,0,0,1,-995,-483)" text-rendering="geometricPrecision" font-family="sans-serif" shape-rendering="geometricPrecision" stroke-miterlimit="1.45">
      <text x="1017.949" xml:space="preserve" y="773.2852" clip-path="url(#clipPath2)" stroke="none">forgont:AuthenticCopy</text>
      <rect x="1010.8438" y="745" clip-path="url(#clipPath2)" fill="none" width="172.5307" rx="4" ry="4" height="44"/>
    </g>
    <g fill="yellow" text-rendering="geometricPrecision" shape-rendering="geometricPrecision" transform="matrix(1,0,0,1,-995,-483)" stroke="yellow">
      <rect x="1010.8438" y="862.6094" clip-path="url(#clipPath2)" width="166.2807" rx="4" ry="4" height="44" stroke="none"/>
    </g>
    <g font-size="16px" stroke-linecap="butt" transform="matrix(1,0,0,1,-995,-483)" text-rendering="geometricPrecision" font-family="sans-serif" shape-rendering="geometricPrecision" stroke-miterlimit="1.45">
      <text x="1018.3943" xml:space="preserve" y="890.8945" clip-path="url(#clipPath2)" stroke="none">forgont:ImitativeCopy</text>
      <rect x="1010.8438" y="862.6094" clip-path="url(#clipPath2)" fill="none" width="166.2807" rx="4" ry="4" height="44"/>
    </g>
    <g fill="yellow" text-rendering="geometricPrecision" shape-rendering="geometricPrecision" transform="matrix(1,0,0,1,-995,-483)" stroke="yellow">
      <rect x="1058.0938" y="804.75" clip-path="url(#clipPath2)" width="110.8432" rx="4" ry="4" height="44" stroke="none"/>
    </g>
    <g font-size="16px" stroke-linecap="butt" transform="matrix(1,0,0,1,-995,-483)" text-rendering="geometricPrecision" font-family="sans-serif" shape-rendering="geometricPrecision" stroke-miterlimit="1.45">
      <text x="1066.3787" xml:space="preserve" y="833.0352" clip-path="url(#clipPath2)" stroke="none">forgont:Insert</text>
      <rect x="1058.0938" y="804.75" clip-path="url(#clipPath2)" fill="none" width="110.8432" rx="4" ry="4" height="44"/>
    </g>
    <g fill="yellow" text-rendering="geometricPrecision" shape-rendering="geometricPrecision" transform="matrix(1,0,0,1,-995,-483)" stroke="yellow">
      <rect x="1023.6563" y="920.4688" clip-path="url(#clipPath2)" width="153.4682" rx="4" ry="4" height="44" stroke="none"/>
    </g>
    <g font-size="16px" stroke-linecap="butt" transform="matrix(1,0,0,1,-995,-483)" text-rendering="geometricPrecision" font-family="sans-serif" shape-rendering="geometricPrecision" stroke-miterlimit="1.45">
      <text x="1030.1326" xml:space="preserve" y="948.7539" clip-path="url(#clipPath2)" stroke="none">forgont:SimpleCopy</text>
      <rect x="1023.6563" y="920.4688" clip-path="url(#clipPath2)" fill="none" width="153.4682" rx="4" ry="4" height="44"/>
    </g>
    <g fill="yellow" text-rendering="geometricPrecision" shape-rendering="geometricPrecision" transform="matrix(1,0,0,1,-995,-483)" stroke="yellow">
      <rect x="1828.9688" y="839.25" clip-path="url(#clipPath2)" width="248.7651" rx="4" ry="4" height="44" stroke="none"/>
    </g>
    <g font-size="16px" stroke-linecap="butt" transform="matrix(1,0,0,1,-995,-483)" text-rendering="geometricPrecision" font-family="sans-serif" shape-rendering="geometricPrecision" stroke-miterlimit="1.45">
      <text x="1831.9529" xml:space="preserve" y="867.5352" clip-path="url(#clipPath2)" stroke="none">forgont:IntegrallyForgedDocument</text>
      <rect x="1828.9688" y="839.25" clip-path="url(#clipPath2)" fill="none" width="248.7651" rx="4" ry="4" height="44"/>
    </g>
    <g fill="yellow" text-rendering="geometricPrecision" shape-rendering="geometricPrecision" transform="matrix(1,0,0,1,-995,-483)" stroke="yellow">
      <rect x="1828.9688" y="713.75" clip-path="url(#clipPath2)" width="248.7651" rx="4" ry="4" height="44" stroke="none"/>
    </g>
    <g font-size="16px" stroke-linecap="butt" transform="matrix(1,0,0,1,-995,-483)" text-rendering="geometricPrecision" font-family="sans-serif" shape-rendering="geometricPrecision" stroke-miterlimit="1.45">
      <text x="1835.9607" xml:space="preserve" y="742.0352" clip-path="url(#clipPath2)" stroke="none">forgont:PartiallyForgedDocument</text>
      <rect x="1828.9688" y="713.75" clip-path="url(#clipPath2)" fill="none" width="248.7651" rx="4" ry="4" height="44"/>
    </g>
    <g fill="yellow" text-rendering="geometricPrecision" shape-rendering="geometricPrecision" transform="matrix(1,0,0,1,-995,-483)" stroke="yellow">
      <rect x="1446.2034" y="737.6094" clip-path="url(#clipPath2)" width="185.0307" rx="4" ry="4" height="44" stroke="none"/>
    </g>
    <g font-size="16px" stroke-linecap="butt" transform="matrix(1,0,0,1,-995,-483)" text-rendering="geometricPrecision" font-family="sans-serif" shape-rendering="geometricPrecision" stroke-miterlimit="1.45">
      <text x="1457.3359" xml:space="preserve" y="765.8945" clip-path="url(#clipPath2)" stroke="none">forgont:AllegedOriginal</text>
      <rect x="1446.2034" y="737.6094" clip-path="url(#clipPath2)" fill="none" width="185.0307" rx="4" ry="4" height="44"/>
    </g>
    <g fill="yellow" text-rendering="geometricPrecision" shape-rendering="geometricPrecision" transform="matrix(1,0,0,1,-995,-483)" stroke="yellow">
      <rect x="2039.7346" y="776.5" clip-path="url(#clipPath2)" width="341.9682" rx="4" ry="4" height="44" stroke="none"/>
    </g>
    <g font-size="16px" stroke-linecap="butt" transform="matrix(1,0,0,1,-995,-483)" text-rendering="geometricPrecision" font-family="sans-serif" shape-rendering="geometricPrecision" stroke-miterlimit="1.45">
      <text x="2055.5234" xml:space="preserve" y="804.7852" clip-path="url(#clipPath2)" stroke="none">forgont:SuspectedPartiallyForgedDocument</text>
      <rect x="2039.7346" y="776.5" clip-path="url(#clipPath2)" fill="none" width="341.9682" rx="4" ry="4" height="44"/>
    </g>
    <g fill="yellow" text-rendering="geometricPrecision" shape-rendering="geometricPrecision" transform="matrix(1,0,0,1,-995,-483)" stroke="yellow">
      <rect x="2039.7346" y="902" clip-path="url(#clipPath2)" width="341.9682" rx="4" ry="4" height="44" stroke="none"/>
    </g>
    <g font-size="16px" stroke-linecap="butt" transform="matrix(1,0,0,1,-995,-483)" text-rendering="geometricPrecision" font-family="sans-serif" shape-rendering="geometricPrecision" stroke-miterlimit="1.45">
      <text x="2051.5156" xml:space="preserve" y="930.2852" clip-path="url(#clipPath2)" stroke="none">forgont:SuspectedIntegrallyForgedDocument</text>
      <rect x="2039.7346" y="902" clip-path="url(#clipPath2)" fill="none" width="341.9682" rx="4" ry="4" height="44"/>
    </g>
    <g fill="yellow" text-rendering="geometricPrecision" shape-rendering="geometricPrecision" transform="matrix(1,0,0,1,-995,-483)" stroke="yellow">
      <rect x="2106.4846" y="628.5" clip-path="url(#clipPath2)" width="208.4682" rx="4" ry="4" height="44" stroke="none"/>
    </g>
    <g font-size="16px" stroke-linecap="butt" transform="matrix(1,0,0,1,-995,-483)" text-rendering="geometricPrecision" font-family="sans-serif" shape-rendering="geometricPrecision" stroke-miterlimit="1.45">
      <text x="2118.2227" xml:space="preserve" y="656.7852" clip-path="url(#clipPath2)" stroke="none">forgont:SuspectedForgery</text>
      <rect x="2106.4846" y="628.5" clip-path="url(#clipPath2)" fill="none" width="208.4682" rx="4" ry="4" height="44"/>
    </g>
    <g fill="yellow" text-rendering="geometricPrecision" shape-rendering="geometricPrecision" transform="matrix(1,0,0,1,-995,-483)" stroke="yellow">
      <rect x="1446.2034" y="804.2188" clip-path="url(#clipPath2)" width="185.0307" rx="4" ry="4" height="44" stroke="none"/>
    </g>
    <g font-size="16px" stroke-linecap="butt" transform="matrix(1,0,0,1,-995,-483)" text-rendering="geometricPrecision" font-family="sans-serif" shape-rendering="geometricPrecision" stroke-miterlimit="1.45">
      <text x="1458.6758" xml:space="preserve" y="832.5039" clip-path="url(#clipPath2)" stroke="none">forgont:AlteredOriginal</text>
      <rect x="1446.2034" y="804.2188" clip-path="url(#clipPath2)" fill="none" width="185.0307" rx="4" ry="4" height="44"/>
    </g>
    <g fill="yellow" text-rendering="geometricPrecision" shape-rendering="geometricPrecision" transform="matrix(1,0,0,1,-995,-483)" stroke="yellow">
      <rect x="1237.5318" y="584.5" clip-path="url(#clipPath2)" width="208.4682" rx="4" ry="4" height="44" stroke="none"/>
    </g>
    <g font-size="16px" stroke-linecap="butt" transform="matrix(1,0,0,1,-995,-483)" text-rendering="geometricPrecision" font-family="sans-serif" shape-rendering="geometricPrecision" stroke-miterlimit="1.45">
      <text x="1244.8206" xml:space="preserve" y="612.7852" clip-path="url(#clipPath2)" stroke="none">forgont:AuthenticDocument</text>
      <rect x="1237.5318" y="584.5" clip-path="url(#clipPath2)" fill="none" width="208.4682" rx="4" ry="4" height="44"/>
      <path fill="none" d="M1711.156 628.4845 L1711.156 520 L1614.7085 520" clip-path="url(#clipPath2)"/>
      <path d="M1606.7085 520 L1618.7085 525 L1615.7085 520 L1618.7085 515 Z" stroke="none" clip-path="url(#clipPath2)"/>
      <path fill="none" d="M1183.3975 767 L1264.6942 767 L1265.9631 723.0016" clip-path="url(#clipPath2)"/>
      <path d="M1266.1937 715.0049 L1260.85 726.8558 L1265.9343 724.0012 L1270.8457 727.144 Z" stroke="none" clip-path="url(#clipPath2)"/>
      <path fill="none" d="M1177.0966 884.6094 L1264.625 884.6094 L1266.483 723.0327" clip-path="url(#clipPath2)"/>
      <path d="M1266.5751 715.0332 L1261.4374 726.9749 L1266.4716 724.0326 L1271.4366 727.0899 Z" stroke="none" clip-path="url(#clipPath2)"/>
      <path fill="none" d="M1168.964 826.75 L1264.625 826.75 L1266.3346 722.9749" clip-path="url(#clipPath2)"/>
      <path d="M1266.4663 714.976 L1261.2694 726.8921 L1266.3181 723.9748 L1271.2681 727.0567 Z" stroke="none" clip-path="url(#clipPath2)"/>
      <path fill="none" d="M1177.0947 942.4688 L1264.625 942.4688 L1266.5632 723.017" clip-path="url(#clipPath2)"/>
      <path d="M1266.6339 715.0173 L1261.5281 726.9727 L1266.5544 724.017 L1271.5277 727.061 Z" stroke="none" clip-path="url(#clipPath2)"/>
      <path fill="none" d="M1828.9719 861.25 L1711.156 861.25 L1711.156 680.496" clip-path="url(#clipPath2)"/>
      <path d="M1711.156 672.496 L1706.156 684.496 L1711.156 681.496 L1716.156 684.496 Z" stroke="none" clip-path="url(#clipPath2)"/>
      <path fill="none" d="M1828.9719 735.75 L1711.156 735.75 L1711.156 680.5201" clip-path="url(#clipPath2)"/>
      <path d="M1711.156 672.5201 L1706.156 684.5201 L1711.156 681.5201 L1716.156 684.5201 Z" stroke="none" clip-path="url(#clipPath2)"/>
      <path fill="none" d="M1446.1915 759.6094 L1414.5 759.6094 L1414.5 723.0188" clip-path="url(#clipPath2)"/>
      <path d="M1414.5 715.0188 L1409.5 727.0188 L1414.5 724.0188 L1419.5 727.0188 Z" stroke="none" clip-path="url(#clipPath2)"/>
      <path fill="none" d="M2039.7164 798.5 L1953.3513 798.5 L1953.3513 765.7799" clip-path="url(#clipPath2)"/>
      <path d="M1953.3513 757.7799 L1948.3513 769.7799 L1953.3513 766.7799 L1958.3513 769.7799 Z" stroke="none" clip-path="url(#clipPath2)"/>
      <path fill="none" d="M2039.7164 924 L1953.3513 924 L1953.3513 891.2799" clip-path="url(#clipPath2)"/>
      <path d="M1953.3513 883.2799 L1948.3513 895.2799 L1953.3513 892.2799 L1958.3513 895.2799 Z" stroke="none" clip-path="url(#clipPath2)"/>
      <path fill="none" d="M2210.7188 776.4951 L2210.7188 680.4938" clip-path="url(#clipPath2)"/>
      <path d="M2210.7188 672.4938 L2205.7188 684.4938 L2210.7188 681.4938 L2215.7188 684.4938 Z" stroke="none" clip-path="url(#clipPath2)"/>
      <path fill="none" d="M2381.679 924 L2431.375 924 L2431.375 650.5 L2322.9326 650.5" clip-path="url(#clipPath2)"/>
      <path d="M2314.9326 650.5 L2326.9326 655.5 L2323.9326 650.5 L2326.9326 645.5 Z" stroke="none" clip-path="url(#clipPath2)"/>
      <path fill="none" d="M2106.4705 650.5 L1782.0338 650.5" clip-path="url(#clipPath2)"/>
      <path d="M1774.0338 650.5 L1786.0338 655.5 L1783.0338 650.5 L1786.0338 645.5 Z" stroke="none" clip-path="url(#clipPath2)"/>
      <path fill="none" d="M1446.1915 826.2188 L1414.5 826.2188 L1414.5 723.0188" clip-path="url(#clipPath2)"/>
      <path d="M1414.5 715.0188 L1409.5 727.0188 L1414.5 724.0188 L1419.5 727.0188 Z" stroke="none" clip-path="url(#clipPath2)"/>
      <path fill="none" d="M1266.8284 671.0256 L1266.8284 648.0864 L1266.8284 636.5079" clip-path="url(#clipPath2)"/>
      <path d="M1266.8284 628.5079 L1261.8284 640.5079 L1266.8284 637.5079 L1271.8284 640.5079 Z" stroke="none" clip-path="url(#clipPath2)"/>
      <path fill="none" d="M1414.5 670.9767 L1414.5 636.5155" clip-path="url(#clipPath2)"/>
      <path d="M1414.5 628.5155 L1409.5 640.5155 L1414.5 637.5155 L1419.5 640.5155 Z" stroke="none" clip-path="url(#clipPath2)"/>
      <path fill="none" d="M1341.7659 584.4949 L1341.7659 520 L1462.7758 520" clip-path="url(#clipPath2)"/>
      <path d="M1470.7758 520 L1458.7758 515 L1461.7758 520 L1458.7758 525 Z" stroke="none" clip-path="url(#clipPath2)"/>
    </g>
  </g>
</svg>
